<svg width="436" height="500" viewBox="0 0 436 500" fill="none" xmlns="http://www.w3.org/2000/svg">
<path d="M218.453 448.857L37.6355 117.501H119.673L244.683 374.395L218.453 448.857ZM218.453 448.857L215.105 399.991L359.09 116.105H397.597L248.59 392.08C247.846 393.319 246.171 396.424 243.567 401.387C240.963 406.041 238.172 411.469 235.196 417.676C232.219 423.882 229.615 429.932 227.383 435.826C225.15 441.411 223.848 445.755 223.476 448.857H218.453ZM342.905 148.217C347.37 138.909 346.812 131.773 341.231 126.809C335.65 121.845 329.139 119.363 321.698 119.363H316.676V114.709H433.872V119.363C433.872 119.363 432.942 119.363 431.082 119.363C429.594 119.363 428.85 119.363 428.85 119.363C420.665 119.363 411.921 121.689 402.62 126.343C393.319 130.687 385.691 138.133 379.739 148.682L342.905 148.217ZM135.3 148.217L54.3779 148.682C48.4252 138.133 40.798 130.687 31.4966 126.343C22.5674 121.689 13.8241 119.363 5.26689 119.363C5.26689 119.363 4.52276 119.363 3.03457 119.363C1.54635 119.363 0.802246 119.363 0.802246 119.363V114.709H160.971V119.363H155.949C148.88 119.363 142.555 121.845 136.974 126.809C131.765 131.773 131.207 138.909 135.3 148.217Z" fill="black"/>
<path d="M217.164 230.917C198.054 216.366 171.3 174.167 217.164 121.783C263.028 69.3992 247.599 49.0276 234.151 36.9017C252.553 49.0276 280.864 75.7048 263.878 116.933C255.384 141.185 195.931 182.413 217.164 230.917Z" fill="#BD3E00"/>
<path d="M246.78 249.006C225.546 219.904 223.098 208.996 236.163 183.526C252.039 152.578 286.656 139.444 281.22 93.2572C284.844 107.953 299.864 135.022 278.63 164.125C263.927 184.277 236.163 206.665 246.78 249.006Z" fill="#E27B49"/>
</svg>
