<svg width="470" height="173" viewBox="0 0 470 173" fill="none" xmlns="http://www.w3.org/2000/svg">
<path d="M50.104 127.304L8.632 36.168H27.448L56.12 106.824L50.104 127.304ZM50.104 127.304L49.336 113.864L82.36 35.784H91.192L57.016 111.688C56.8453 112.029 56.4613 112.883 55.864 114.248C55.2667 115.528 54.6267 117.021 53.944 118.728C53.2613 120.435 52.664 122.099 52.152 123.72C51.64 125.256 51.3413 126.451 51.256 127.304H50.104ZM78.648 44.616C79.672 42.056 79.544 40.0933 78.264 38.728C76.984 37.3627 75.4907 36.68 73.784 36.68H72.632V35.4H99.512V36.68C99.512 36.68 99.2987 36.68 98.872 36.68C98.5307 36.68 98.36 36.68 98.36 36.68C96.4827 36.68 94.4773 37.32 92.344 38.6C90.2107 39.7947 88.4613 41.8427 87.096 44.744L78.648 44.616ZM31.032 44.616L12.472 44.744C11.1067 41.8427 9.35733 39.7947 7.224 38.6C5.176 37.32 3.17067 36.68 1.208 36.68C1.208 36.68 1.03733 36.68 0.696 36.68C0.354666 36.68 0.184 36.68 0.184 36.68V35.4H36.92V36.68H35.768C34.1467 36.68 32.696 37.3627 31.416 38.728C30.2213 40.0933 30.0933 42.056 31.032 44.616ZM128.366 35.4V125H112.75V35.4H128.366ZM162.286 120.008L164.462 125H127.982V120.008H162.286ZM157.422 78.408V83.272H127.982V78.408H157.422ZM163.438 35.4V40.392H127.982V35.4H163.438ZM171.246 100.68L164.846 125H140.91L145.518 120.008C149.87 120.008 153.625 119.24 156.782 117.704C159.939 116.083 162.585 113.821 164.718 110.92C166.851 107.933 168.601 104.52 169.966 100.68H171.246ZM157.422 83.016V94.024H156.142V92.616C156.142 89.9707 155.246 87.752 153.454 85.96C151.662 84.168 149.443 83.272 146.798 83.272V83.016H157.422ZM157.422 67.656V78.664H146.798V78.408C149.443 78.3227 151.662 77.384 153.454 75.592C155.246 73.8 156.142 71.5813 156.142 68.936V67.656H157.422ZM163.438 40.008V53.32H162.158V51.528C162.158 48.2853 161.134 45.64 159.086 43.592C157.038 41.4587 154.307 40.3493 150.894 40.264V40.008H163.438ZM163.438 33.096V36.808L147.822 35.4C149.699 35.4 151.662 35.272 153.71 35.016C155.843 34.76 157.806 34.4613 159.598 34.12C161.39 33.7787 162.67 33.4373 163.438 33.096ZM113.134 115.656V125H102.894V123.72C102.894 123.72 103.15 123.72 103.662 123.72C104.259 123.72 104.558 123.72 104.558 123.72C106.777 123.72 108.654 122.952 110.19 121.416C111.811 119.795 112.665 117.875 112.75 115.656H113.134ZM113.134 44.744H112.75C112.665 42.5253 111.811 40.648 110.19 39.112C108.654 37.4907 106.777 36.68 104.558 36.68C104.558 36.68 104.259 36.68 103.662 36.68C103.15 36.68 102.894 36.68 102.894 36.68V35.4H113.134V44.744ZM209.554 33.608C211.175 33.608 213.095 33.6933 215.314 33.864C217.533 34.0347 219.751 34.2907 221.97 34.632C224.274 34.888 226.322 35.1867 228.114 35.528C229.906 35.784 231.143 36.0827 231.826 36.424L230.802 52.68H229.522C229.522 48.328 227.943 44.872 224.786 42.312C221.714 39.752 217.703 38.472 212.754 38.472C207.805 38.472 203.837 39.752 200.85 42.312C197.949 44.872 196.455 47.9867 196.37 51.656C196.199 53.7893 196.797 55.88 198.162 57.928C199.613 59.8907 201.533 61.7253 203.922 63.432L228.626 81.864C232.125 84.0827 234.685 86.856 236.306 90.184C237.927 93.4267 238.653 97.096 238.482 101.192C238.226 109.043 235.367 115.272 229.906 119.88C224.53 124.488 217.191 126.792 207.89 126.792C204.733 126.792 201.49 126.493 198.162 125.896C194.919 125.384 191.933 124.573 189.202 123.464C186.471 122.269 184.295 120.861 182.674 119.24C182.162 117.533 181.949 115.485 182.034 113.096C182.119 110.621 182.461 108.104 183.058 105.544C183.655 102.899 184.381 100.68 185.234 98.888H186.386C186.045 103.24 186.77 107.208 188.562 110.792C190.354 114.291 192.957 117.064 196.37 119.112C199.869 121.075 203.965 122.013 208.658 121.928C213.949 121.757 218.173 120.264 221.33 117.448C224.573 114.632 226.194 111.005 226.194 106.568C226.194 104.008 225.511 101.704 224.146 99.656C222.781 97.5227 220.647 95.6027 217.746 93.896L194.578 76.36C190.653 73.8 187.837 70.728 186.13 67.144C184.509 63.4747 183.826 59.6773 184.082 55.752C184.338 51.656 185.49 47.944 187.538 44.616C189.586 41.2027 192.445 38.5147 196.114 36.552C199.869 34.5893 204.349 33.608 209.554 33.608ZM231.954 34.888L231.826 37.576H218.514V34.888H231.954ZM294.411 35.784V125H278.795V35.784H294.411ZM326.155 35.272V40.136H246.923V35.272H326.155ZM326.155 39.752V53.192L324.875 53.064V51.4C324.875 48.072 323.851 45.384 321.803 43.336C319.755 41.288 317.067 40.2213 313.739 40.136V39.752H326.155ZM326.155 32.968V36.68L310.539 35.272C312.416 35.272 314.379 35.144 316.427 34.888C318.56 34.632 320.523 34.3333 322.315 33.992C324.107 33.6507 325.387 33.3093 326.155 32.968ZM279.179 115.656V125H268.939V123.72C268.939 123.72 269.195 123.72 269.707 123.72C270.304 123.72 270.603 123.72 270.603 123.72C272.822 123.72 274.699 122.952 276.235 121.416C277.856 119.795 278.71 117.875 278.795 115.656H279.179ZM294.027 115.656H294.411C294.496 117.875 295.307 119.795 296.843 121.416C298.464 122.952 300.384 123.72 302.603 123.72C302.603 123.72 302.859 123.72 303.371 123.72C303.968 123.72 304.267 123.72 304.267 123.72V125H294.027V115.656ZM259.339 39.752V40.136C256.011 40.2213 253.323 41.288 251.275 43.336C249.227 45.384 248.203 48.072 248.203 51.4V53.064L246.923 53.192V39.752H259.339ZM246.923 32.968C247.776 33.3093 249.056 33.6507 250.763 33.992C252.555 34.3333 254.518 34.632 256.651 34.888C258.784 35.144 260.747 35.272 262.539 35.272L246.923 36.68V32.968ZM359.741 35.4V125H344.125V35.4H359.741ZM344.509 115.656V125H334.269V123.72C334.269 123.72 334.525 123.72 335.037 123.72C335.634 123.72 335.933 123.72 335.933 123.72C338.152 123.72 340.029 122.952 341.565 121.416C343.186 119.795 344.04 117.875 344.125 115.656H344.509ZM344.509 44.744H344.125C344.04 42.5253 343.186 40.648 341.565 39.112C340.029 37.4907 338.152 36.68 335.933 36.68C335.933 36.68 335.634 36.68 335.037 36.68C334.525 36.68 334.269 36.68 334.269 36.68V35.4H344.509V44.744ZM359.357 115.656H359.741C359.826 117.875 360.637 119.795 362.173 121.416C363.794 122.952 365.714 123.72 367.933 123.72C367.933 123.72 368.189 123.72 368.701 123.72C369.213 123.72 369.512 123.72 369.597 123.72V125H359.357V115.656ZM359.357 44.744V35.4H369.597V36.68C369.512 36.68 369.213 36.68 368.701 36.68C368.189 36.68 367.933 36.68 367.933 36.68C365.714 36.68 363.794 37.4907 362.173 39.112C360.637 40.648 359.826 42.5253 359.741 44.744H359.357ZM420.568 33.096L461.016 124.232H442.072L414.552 53.576L420.568 33.096ZM393.048 115.656C392.365 117.363 392.237 118.813 392.664 120.008C393.091 121.203 393.816 122.141 394.84 122.824C395.864 123.421 396.888 123.72 397.912 123.72H399.064V125H372.184V123.72C372.184 123.72 372.397 123.72 372.824 123.72C373.165 123.72 373.336 123.72 373.336 123.72C375.299 123.72 377.304 123.123 379.352 121.928C381.485 120.648 383.235 118.557 384.6 115.656H393.048ZM420.568 33.096L421.208 46.536L389.336 124.616H380.632L413.656 48.712C413.827 48.3707 414.168 47.56 414.68 46.28C415.277 44.9147 415.917 43.3787 416.6 41.672C417.368 39.9653 418.008 38.344 418.52 36.808C419.032 35.1867 419.331 33.9493 419.416 33.096H420.568ZM435.544 93V97.864H397.016V93H435.544ZM438.744 115.656H457.176C458.541 118.557 460.248 120.648 462.296 121.928C464.429 123.123 466.477 123.72 468.44 123.72C468.44 123.72 468.611 123.72 468.952 123.72C469.293 123.72 469.464 123.72 469.464 123.72V125H432.728V123.72H433.88C435.501 123.72 436.952 123.037 438.232 121.672C439.512 120.221 439.683 118.216 438.744 115.656Z" fill="black"/>
<path d="M49.8083 67.3619C45.4252 63.3597 39.2889 51.7535 49.8083 37.3458C60.3276 22.9381 56.7887 17.3351 53.7043 14C57.925 17.3351 64.4184 24.6724 60.5224 36.0118C58.5744 42.682 44.9382 54.0214 49.8083 67.3619Z" fill="#BD3E00"/>
<path d="M56.6009 72.3372C51.7308 64.333 51.1692 61.3327 54.1659 54.3276C57.8072 45.8156 65.7467 42.2033 64.5 29.5C65.3311 33.542 68.776 40.9871 63.906 48.9914C60.5336 54.5341 54.1659 60.6917 56.6009 72.3372Z" fill="#E27B49"/>
</svg>
